# xmcd CD database file
#
# Track frame offsets:
#	150
#	17797
#	32035
#	42012
#	60255
#	76895
#	95782
#	113867
#	132757
#	148822
#	165370
#	185267
#	198340
#	208367
#
# Disc length: 3029 seconds
#
# Revision: 3
# Processed by: cddbd v1.5.2PL0 Copyright (c) Steve Scherf et al.
# Submitted via: CDex 1.70beta2
#
DISCID=bb0bd30e
DTITLE=The Bellamy Brothers - Sons Of Beaches
DYEAR=1995
DGENRE=Country
TTITLE0=Shine Them Buckles
TTITLE1=Big Hair
TTITLE2=Pit Bulls And Chainsaws
TTITLE3=Blue Rodeo
TTITLE4=Twang Town
TTITLE5=She's Awesome
TTITLE6=Old Hippie (The Sequel)
TTITLE7=Native American
TTITLE8=Feel Free
TTITLE9=Too Much Fun
TTITLE10=We Dared The Lightning
TTITLE11=Elvis, Marilyn And James Dean
TTITLE12=Gotta Get A Little Crazy
TTITLE13=Jesus Is Coming
EXTD=YEAR: 1995
EXTT0=
EXTT1=
EXTT2=
EXTT3=
EXTT4=
EXTT5=
EXTT6=
EXTT7=
EXTT8=
EXTT9=
EXTT10=
EXTT11=
EXTT12=
EXTT13=
PLAYORDER=
